<?xml version="1.0" standalone="no"?>
<!DOCTYPE svg PUBLIC "-//W3C//DTD SVG 20010904//EN"
 "http://www.w3.org/TR/2001/REC-SVG-20010904/DTD/svg10.dtd">
<svg xmlns="http://www.w3.org/2000/svg" xmlns:xlink="http://www.w3.org/1999/xlink" version="1.1" x="0px" y="0px" viewBox="0 0 100 100" enable-background="new 0 0 100 100" xml:space="preserve"><path d="M93.48,34.03c-0.011-2.09-0.4-2.12-0.761-2.09c0-0.74,0-1.24,0-1.24l-0.5-0.42l-0.029-1.31c0,0-0.171-1.33-2.23-0.74  c-2.07,0.6-3.29,0.91-3.29,0.91l-0.01,0.38l-32.69,1.14c0,0-0.02-0.08-0.609-0.1c-0.591-0.01-14.48,0-14.48,0s-1.1-0.08-1.55-0.48  c-0.61-0.02-0.88-0.03-0.88-0.03s-0.62-0.33-1.39-0.08c-0.73,0-1.01,0-1.01,0l-0.03-0.2c0,0-0.35-0.3-0.35-0.89  c0-0.17-1.36,0-1.36,0s-0.2,0.12-0.19,0.35c-0.31,0-0.31,0-0.31,0v2.17c0,0,0.92,0.22,0,0.4c-0.39,0.45-0.5,0.56-0.5,0.56  l-0.51-0.14c0,0-0.96,3-3.28,0.62c-0.47-0.37-2.8-2.15-5.16-1.53c-0.18,0.05-0.22,0.41-0.09,0.69c2.1,0.51,2.69,0.67,3.18,0.95  c0.49,0.29,3.05,1.57,3.46,3.72c-1.44,0.41-3.77,1.45-4.19,2.21c-1.11,0.09-2.95,0.21-3.67,0.31c-0.72,0.09-1.44,0.28-1.94,1.09  c-0.55,0.25-1.31,0.55-1.56,1.13c-2.97,6.8-1.68,3.63-5.93,11.42C9.42,57.17,8.25,63.27,7.05,70c0.03,0.81,0.84,1.16,1.87,1.33  C9.95,71.5,20.14,72.17,24.5,70c0,0-3.46-20.58,7.27-15.7c0,0,0.11-0.569,0.28-0.18c2.09,4.83,13.18,4.05,13.29-1.68  c0,0-0.1-1.99,1.19-3.19c1.17-1.09,2.19-0.57,5.44-0.72c0,0,0.19,0.08,0.391-1c0.199-1.08,1.279-6.75,1.58-7.2  c0.59,0.01,37.869-0.31,37.869-0.31s0.601-0.08,0.61-1.43c0.021-1.34,0-1.68,0-1.68h0.5C92.92,36.91,93.5,36.12,93.48,34.03z   M38.9,56.4c-3.14,0.06-3.98-0.66-5.18-1.521c-0.98-0.7-3.06-5.16,0.91-6.55c0,0,0.86,1.3,2.05,1.57c0.26,0.18,0.49,0.23,0.13,0.94  c-0.06,0.97-0.09,4.57,4.15,5.05c0.52-0.05,0.96-0.22,0.4-0.71c-0.85-0.359-2.71-0.68-2.93-2.54c0,0-0.29-1.149,0.94-2.36  c1.23-1.22,0.7-2.2,0.91-2.22c0.21-0.02,2.83-0.62,3.85,1.77C44.44,52,45.09,56.29,38.9,56.4z M62.5,31.92h-4.94v-0.4h4.94V31.92z   M75.67,31.86H70.7v-0.42h4.97V31.86z M89.14,31.75h-5.12V31.3h5.12V31.75z"/></svg>
