<?xml version="1.0" standalone="no"?>
<!DOCTYPE svg PUBLIC "-//W3C//DTD SVG 20010904//EN"
 "http://www.w3.org/TR/2001/REC-SVG-20010904/DTD/svg10.dtd">
<svg version="1.0" xmlns="http://www.w3.org/2000/svg"
 width="300.000000pt" height="424.000000pt" viewBox="0 0 300.000000 424.000000"
 preserveAspectRatio="xMidYMid meet">
<metadata>
Created by potrace 1.10, written by Peter Selinger 2001-2011
</metadata>
<g transform="translate(0.000000,424.000000) scale(0.100000,-0.100000)"
fill="#000000" stroke="none">
<path d="M1218 3493 c7 -3 16 -2 19 1 4 3 -2 6 -13 5 -11 0 -14 -3 -6 -6z"/>
<path d="M402 3372 c-25 -4 -57 -45 -49 -64 4 -9 6 -7 6 4 3 49 68 63 100 22
12 -15 21 -22 21 -17 0 26 -47 60 -78 55z"/>
<path d="M454 3282 c-9 -14 -8 -18 6 -18 11 0 15 6 12 18 -2 10 -5 18 -6 18
-1 0 -6 -8 -12 -18z"/>
<path d="M364 3272 c0 -14 9 -18 36 -19 19 -1 26 1 15 4 -11 3 -27 11 -35 19
-13 11 -16 11 -16 -4z"/>
<path d="M202 3205 c-7 -14 -12 -35 -12 -45 0 -11 -4 -20 -10 -20 -5 0 -10 11
-10 24 0 35 -18 42 -23 9 l-4 -28 -8 33 c-9 37 -29 29 -23 -9 2 -17 13 -27 34
-34 17 -6 38 -16 47 -23 14 -12 14 -16 -2 -45 -12 -23 -15 -42 -10 -65 5 -27
4 -30 -7 -21 -8 6 -14 22 -14 34 0 12 -9 34 -21 49 -11 14 -17 30 -14 36 3 5
2 10 -4 10 -6 0 -8 6 -5 14 7 17 -28 30 -56 21 -30 -9 -24 -23 8 -18 23 3 24
2 7 -6 -19 -9 -19 -10 3 -10 30 -1 28 -21 -2 -21 -26 0 -56 -23 -56 -43 0 -8
4 -7 12 1 21 21 31 13 14 -13 -27 -41 -18 -42 19 -2 18 20 41 37 49 37 11 0 8
-7 -9 -25 -14 -13 -25 -34 -25 -47 0 -20 2 -19 30 12 l29 35 1 -47 c0 -38 3
-46 15 -42 13 5 15 -11 15 -109 l0 -115 -45 -11 -45 -11 0 -324 c0 -315 -1
-323 -21 -342 -25 -22 -38 -46 -50 -88 l-9 -31 20 25 c11 14 20 30 20 37 0 6
15 28 34 47 18 20 31 36 27 36 -5 0 -6 139 -1 160 1 3 1 107 0 233 -1 211 0
228 17 233 10 3 26 10 36 15 15 8 17 4 18 -33 5 -157 19 -189 19 -45 0 58 4
97 10 97 6 0 10 -5 10 -11 0 -5 4 -8 9 -5 14 9 42 -5 34 -17 -7 -12 -5 -133 3
-160 4 -14 13 -18 31 -14 18 3 27 -1 33 -17 8 -20 9 -19 9 6 1 19 6 26 19 23
9 -1 27 2 40 6 34 13 162 -19 163 -40 0 -14 1 -14 6 -1 3 8 12 22 20 32 10 11
13 35 11 81 -2 60 3 81 20 83 4 0 33 8 65 17 32 10 62 15 66 12 11 -6 23 28
30 89 6 49 7 51 61 77 30 16 58 28 63 29 4 0 8 -89 9 -197 1 -146 3 -176 7
-113 4 47 6 133 6 193 0 59 2 107 5 107 4 0 15 -7 26 -15 10 -8 27 -15 37 -15
14 0 17 -10 17 -69 0 -39 4 -72 8 -75 5 -3 7 -29 5 -59 -2 -43 1 -58 17 -72
16 -15 25 -16 67 -6 26 6 118 25 203 42 85 17 159 35 165 40 16 15 -24 10
-178 -21 -81 -16 -152 -30 -157 -30 -6 0 -10 21 -10 46 l0 47 31 -7 c17 -3 44
-6 60 -6 23 0 28 -5 32 -27 l4 -28 2 28 c1 32 -6 31 180 16 126 -11 144 -10
240 10 57 11 106 19 109 17 2 -3 -6 -7 -19 -10 -13 -3 -42 -9 -64 -15 -39 -10
-39 -10 10 -4 28 3 58 9 67 14 22 12 41 11 34 0 -4 -5 4 -7 16 -3 16 4 19 2
13 -8 -5 -8 -4 -11 2 -7 6 4 32 -1 57 -10 36 -13 46 -22 46 -39 0 -12 3 -30 7
-39 5 -14 2 -16 -18 -10 -19 6 -22 5 -12 -5 6 -7 19 -10 28 -6 14 5 16 14 11
41 l-7 34 31 -10 c23 -8 30 -18 31 -37 2 -25 2 -25 6 -4 3 13 10 22 16 19 7
-2 102 -37 212 -77 278 -101 254 -91 230 -100 -11 -4 -45 -11 -75 -14 -30 -4
-73 -11 -95 -16 -55 -13 -55 -13 -55 14 0 21 -9 26 -82 46 -46 13 -90 30 -98
38 -13 13 -12 13 10 3 l25 -12 -23 20 c-13 11 -30 17 -38 14 -13 -5 -13 -7 -3
-14 21 -13 3 -22 -20 -10 -13 7 -22 8 -26 1 -7 -12 -54 19 -55 37 0 7 -14 11
-32 11 -18 -1 -71 11 -118 26 -122 40 -130 42 -130 21 0 -17 -1 -17 -19 -1
-21 20 -38 19 -179 -8 -42 -9 -93 -17 -112 -20 -19 -3 -93 -14 -165 -25 -71
-11 -133 -21 -137 -21 -5 0 -8 -7 -8 -15 0 -8 -6 -15 -14 -15 -10 0 -13 -21
-14 -90 -1 -73 1 -90 13 -90 12 0 15 17 15 89 l0 88 51 7 c29 4 65 10 80 13
l29 6 0 -90 0 -90 -37 -7 c-21 -3 -52 -6 -69 -6 -16 0 -39 -7 -50 -15 -18 -13
-16 -14 21 -14 22 0 58 3 80 8 22 5 74 12 115 15 74 7 96 9 175 22 22 4 51 8
65 9 14 2 45 8 70 14 24 5 46 8 49 6 2 -3 16 4 30 14 19 13 44 18 96 18 79 0
154 11 171 24 8 6 17 4 27 -5 13 -14 15 -13 20 5 5 19 6 19 43 -6 20 -14 47
-25 59 -25 12 0 44 -7 71 -14 27 -8 60 -17 74 -19 14 -2 32 -7 40 -10 8 -4 67
-20 130 -36 63 -16 151 -39 195 -51 44 -12 88 -23 99 -26 25 -5 30 -10 23 -27
-6 -16 -111 -32 -182 -29 -31 1 -36 0 -20 -7 17 -8 14 -10 -15 -10 -22 -1
-100 -33 -215 -88 -99 -47 -236 -113 -305 -146 -69 -33 -118 -62 -110 -64 8
-2 26 -27 40 -56 17 -35 31 -52 43 -51 10 1 17 -5 17 -17 0 -10 5 -21 10 -24
6 -3 10 4 10 18 0 20 4 23 29 19 16 -2 65 5 109 17 69 18 100 20 225 16 137
-5 149 -4 211 19 36 14 100 30 142 36 43 5 80 12 82 15 3 2 12 0 21 -5 13 -6
17 -4 18 12 1 11 4 22 6 24 2 2 31 -2 65 -9 35 -7 60 -16 56 -20 -17 -16 15
-5 40 14 17 13 26 30 26 47 l0 27 -13 -25 c-16 -31 -44 -36 -120 -19 l-60 12
6 165 c4 91 7 266 7 389 0 147 3 222 10 218 5 -3 10 -16 11 -28 0 -22 0 -22 9
-1 4 11 4 42 -1 69 -5 27 -7 51 -3 54 7 8 23 -19 30 -51 4 -15 13 -33 22 -40
28 -23 5 64 -24 90 -22 19 -23 22 -6 22 20 0 52 -29 52 -48 0 -6 4 -14 10 -17
6 -4 6 3 0 21 -6 15 -8 29 -6 32 3 3 8 -3 12 -12 7 -17 24 -22 24 -7 0 22 -53
71 -76 71 -14 0 -22 4 -19 10 3 6 15 10 25 10 10 0 22 5 26 11 5 9 -1 10 -20
5 -26 -6 -26 -6 -20 35 9 54 -9 45 -29 -15 -13 -39 -13 -45 0 -59 14 -13 13
-18 -7 -45 -13 -17 -20 -37 -17 -46 3 -8 2 -18 -2 -20 -5 -3 -11 10 -14 30 -3
20 -12 43 -19 51 -6 8 -13 24 -15 34 -2 15 3 19 27 19 25 0 30 4 30 24 0 35
-18 42 -23 9 l-4 -28 -8 32 c-8 37 -25 35 -25 -3 0 -20 -4 -24 -19 -19 -20 6
-51 -3 -51 -15 0 -4 12 -6 28 -3 23 3 24 2 7 -6 -19 -9 -19 -10 3 -10 32 -1
27 -21 -6 -21 -27 0 -52 -15 -52 -32 0 -5 10 -4 21 3 21 11 21 10 5 -12 -21
-31 -20 -50 2 -23 19 22 72 60 72 51 0 -4 -11 -17 -25 -31 -14 -14 -25 -33
-25 -43 1 -15 5 -13 23 10 31 37 37 34 37 -14 0 -24 4 -38 10 -34 6 4 10 -14
10 -47 -1 -107 -28 -769 -31 -772 -2 -2 -44 -9 -92 -15 -49 -7 -112 -22 -140
-34 -47 -20 -66 -22 -215 -19 -137 2 -174 -1 -234 -18 -40 -11 -85 -20 -100
-20 -28 0 -28 0 -28 70 l0 71 228 110 c239 116 278 129 458 145 l74 7 0 34 c0
41 16 35 -262 104 -120 30 -218 56 -218 59 0 3 64 14 143 24 150 20 167 23
167 36 0 4 -73 35 -162 68 -90 33 -267 99 -394 147 l-232 86 -93 -21 c-84 -19
-105 -20 -223 -11 -72 6 -199 13 -283 17 l-152 7 5 72 4 72 -60 27 c-34 14
-67 26 -73 26 -7 0 -41 -14 -77 -30 l-65 -29 -5 -62 -5 -62 -90 -24 -90 -24
-65 20 c-36 12 -76 21 -88 21 -17 0 -22 6 -22 25 0 14 -11 37 -25 51 -30 30
-31 34 -5 27 12 -3 27 -17 36 -32 l15 -26 -7 25 c-6 22 -5 23 10 11 27 -22 19
7 -9 35 -17 17 -32 23 -45 19 -29 -9 -25 2 8 20 25 15 25 16 4 11 -22 -4 -24
-2 -18 30 4 20 3 34 -3 34 -6 0 -13 -16 -17 -35 -7 -39 -23 -47 -25 -12 -1 21
-1 21 -8 -3 -8 -30 -14 -21 -31 45 -8 33 -23 59 -43 78 -21 18 -26 27 -15 27
21 0 68 -38 68 -55 0 -8 4 -17 10 -20 7 -4 7 3 0 20 -14 36 -13 40 5 25 23
-19 29 -5 9 25 -21 33 -49 48 -74 40 -32 -10 -23 12 10 24 37 12 40 26 4 17
-26 -7 -27 -6 -20 33 7 46 -5 54 -22 16z m23 -185 c9 -18 13 -41 10 -53 -4
-15 -4 -18 3 -8 8 11 11 11 18 0 4 -7 9 -22 10 -34 2 -16 -3 -21 -24 -20 -25
0 -27 4 -33 55 -4 30 -10 63 -14 73 -13 30 14 19 30 -13z m7 -123 c18 4 20 3
8 -6 -13 -9 -12 -11 3 -11 10 0 15 -4 12 -10 -3 -5 -14 -10 -24 -10 -10 0 -25
-8 -32 -17 -12 -15 -12 -16 4 -10 20 7 23 -3 5 -21 -7 -7 -8 -12 -4 -12 4 0
17 11 28 25 11 14 26 25 34 25 10 0 14 8 12 21 -4 26 25 34 43 13 14 -17 -5
-69 -21 -59 -6 4 -8 11 -5 16 4 5 1 9 -4 9 -18 0 -51 -38 -50 -57 0 -15 3 -14
16 5 22 32 33 27 33 -15 0 -28 3 -34 10 -23 8 12 10 10 10 -8 0 -23 -2 -23
-57 -16 -32 3 -59 7 -60 8 -2 1 -5 49 -8 107 -5 97 -4 102 10 72 11 -25 19
-30 37 -26z m128 -114 c0 -13 4 -22 9 -19 5 3 11 -1 15 -9 4 -11 -2 -15 -19
-15 -21 0 -25 5 -25 29 0 16 -3 38 -7 48 -6 16 -5 16 10 4 9 -7 17 -24 17 -38z
m60 -88 c0 -19 -1 -35 -3 -35 -1 0 -17 -4 -35 -9 l-32 -10 0 39 c0 32 4 39 23
43 45 9 47 8 47 -28z m63 18 c12 -4 17 -16 17 -39 0 -32 -1 -33 -32 -29 l-33
5 33 -12 c28 -10 32 -15 32 -49 l0 -38 -32 10 c-18 5 -34 9 -35 9 -2 0 -3 36
-3 81 0 73 2 80 18 74 9 -4 25 -10 35 -12z m627 -43 c0 -33 -4 -50 -12 -50 -7
0 -23 -3 -35 -6 -22 -6 -23 -4 -23 50 l0 56 35 0 35 0 0 -50z m-804 -117 c-3
-7 -12 -13 -21 -13 -23 0 -21 80 3 81 16 1 16 2 0 6 -13 3 -18 14 -18 38 0 24
5 35 18 37 15 3 17 -6 20 -66 2 -38 1 -75 -2 -83z m34 122 c0 -19 -4 -35 -10
-35 -5 0 -10 16 -10 35 0 19 5 35 10 35 6 0 10 -16 10 -35z m211 15 c5 0 9
-34 9 -75 0 -74 -3 -81 -34 -69 -13 5 -16 22 -16 81 0 64 2 74 16 69 9 -3 20
-6 25 -6z m-131 -79 c0 -39 -1 -40 -42 -49 -24 -5 -43 -8 -44 -8 -7 5 -10 76
-3 76 5 0 10 -15 10 -32 l2 -33 6 35 c5 29 11 36 36 41 17 4 31 7 33 8 1 0 2
-17 2 -38z m1210 -78 c0 -43 3 -88 6 -99 5 -20 -1 -22 -100 -38 -160 -25 -146
-32 -146 77 l0 94 113 20 c61 12 115 21 120 22 4 0 7 -34 7 -76z m90 -14 c0
-72 -2 -79 -20 -79 -18 0 -20 7 -20 84 0 79 1 84 20 79 18 -5 20 -14 20 -84z
m101 45 l66 -18 -15 -28 c-8 -16 -11 -36 -7 -46 6 -13 9 -10 15 16 4 18 11 36
15 40 4 4 5 -4 1 -18 -6 -25 -6 -25 5 -2 7 12 18 22 26 22 12 0 11 -4 -1 -22
-9 -12 -16 -30 -16 -39 0 -18 -54 -29 -136 -29 l-44 0 0 76 c0 56 3 74 13 71
6 -3 42 -13 78 -23z m-441 -98 l0 -93 -62 -7 c-35 -4 -73 -10 -85 -13 -23 -5
-23 -4 -23 90 l0 94 63 10 c117 19 107 26 107 -81z m580 37 c0 -24 -17 -49
-26 -40 -4 4 -1 18 6 32 16 30 20 31 20 8z m72 -20 c14 -22 18 -24 18 -10 0
16 5 17 33 12 44 -10 47 -13 47 -41 0 -36 -33 -28 -43 11 -4 19 -5 19 -6 -1
-1 -20 -4 -21 -41 -12 -35 9 -40 14 -40 39 0 36 11 37 32 2z m178 -60 c0 -20
-3 -23 -27 -17 -40 10 -43 12 -43 39 0 22 2 23 35 12 27 -8 35 -16 35 -34z
m17 -20 c-3 -10 -5 -4 -5 12 0 17 2 24 5 18 2 -7 2 -21 0 -30z m-275 -548 c-2
-36 -8 -65 -12 -65 -5 0 -20 22 -33 49 l-23 49 30 15 c17 9 33 16 36 16 3 1 3
-28 2 -64z"/>
<path d="M528 2623 c7 -3 16 -2 19 1 4 3 -2 6 -13 5 -11 0 -14 -3 -6 -6z"/>
<path d="M1537 2573 c-11 -10 -8 -151 3 -158 6 -4 10 25 10 79 0 86 -1 92 -13
79z"/>
<path d="M2510 3163 c0 -8 -18 -11 -55 -10 -30 1 -55 -1 -55 -5 0 -4 55 -6
123 -6 67 1 95 4 62 6 -33 2 -63 9 -67 15 -6 9 -8 9 -8 0z"/>
<path d="M1570 3150 l-35 -7 38 -2 c20 0 37 4 37 9 0 6 -1 9 -2 9 -2 -1 -19
-5 -38 -9z"/>
<path d="M1770 3149 c-25 -3 57 -7 183 -7 125 -1 227 1 227 6 0 8 -345 10
-410 1z"/>
<path d="M2260 3149 l-75 -5 103 -2 c99 -2 130 2 75 9 -16 2 -62 1 -103 -2z"/>
<path d="M2665 3150 c-19 -8 -19 -9 3 -9 12 -1 22 4 22 9 0 6 -1 10 -2 9 -2 0
-12 -4 -23 -9z"/>
<path d="M2730 3150 l-35 -7 43 -2 c27 0 41 3 37 9 -3 6 -7 9 -8 9 -1 -1 -18
-5 -37 -9z"/>
<path d="M2849 3147 c5 -5 19 -7 32 -5 20 3 19 5 -9 9 -20 3 -29 2 -23 -4z"/>
<path d="M2914 3148 c-3 -4 15 -8 40 -8 25 0 46 2 46 4 0 8 -82 11 -86 4z"/>
<path d="M1643 3143 c15 -2 39 -2 55 0 15 2 2 4 -28 4 -30 0 -43 -2 -27 -4z"/>
<path d="M2798 3143 c6 -2 18 -2 25 0 6 3 1 5 -13 5 -14 0 -19 -2 -12 -5z"/>
<path d="M1600 3109 c0 -5 5 -7 10 -4 6 3 10 8 10 11 0 2 -4 4 -10 4 -5 0 -10
-5 -10 -11z"/>
<path d="M1678 3113 c12 -2 30 -2 40 0 9 3 -1 5 -23 4 -22 0 -30 -2 -17 -4z"/>
<path d="M1902 3096 c7 -8 15 -10 16 -5 2 5 22 9 45 9 30 0 38 -3 27 -10 -12
-7 -10 -9 7 -7 12 0 20 4 17 8 -2 4 2 9 8 12 7 2 -20 5 -60 6 -64 1 -72 0 -60
-13z"/>
<path d="M2048 3103 c6 -3 9 -9 6 -15 -4 -6 -1 -9 6 -6 23 7 21 24 -2 25 -13
0 -17 -1 -10 -4z"/>
<path d="M2090 3095 c0 -6 22 -10 58 -8 31 1 104 2 161 2 57 1 102 3 100 5 -7
7 -258 10 -266 3 -9 -10 -25 -9 -19 1 2 4 -4 8 -15 8 -10 0 -19 -5 -19 -11z"/>
<path d="M1082 3078 c-10 -4 -1 -7 25 -7 23 -1 44 2 46 7 6 9 -48 9 -71 0z"/>
<path d="M1225 3080 c-3 -5 -1 -10 4 -10 6 0 11 5 11 10 0 6 -2 10 -4 10 -3 0
-8 -4 -11 -10z"/>
<path d="M1255 3079 c-3 -4 2 -6 10 -5 21 3 28 13 10 13 -9 0 -18 -4 -20 -8z"/>
<path d="M1548 3083 c6 -2 18 -2 25 0 6 3 1 5 -13 5 -14 0 -19 -2 -12 -5z"/>
<path d="M1598 3083 c6 -2 18 -2 25 0 6 3 1 5 -13 5 -14 0 -19 -2 -12 -5z"/>
<path d="M1678 3083 c6 -2 18 -2 25 0 6 3 1 5 -13 5 -14 0 -19 -2 -12 -5z"/>
<path d="M1808 3083 c6 -2 18 -2 25 0 6 3 1 5 -13 5 -14 0 -19 -2 -12 -5z"/>
<path d="M1858 3083 c6 -2 18 -2 25 0 6 3 1 5 -13 5 -14 0 -19 -2 -12 -5z"/>
<path d="M1938 3083 c6 -2 18 -2 25 0 6 3 1 5 -13 5 -14 0 -19 -2 -12 -5z"/>
<path d="M1038 3073 c7 -3 16 -2 19 1 4 3 -2 6 -13 5 -11 0 -14 -3 -6 -6z"/>
<path d="M1600 3049 c0 -5 5 -7 10 -4 6 3 10 8 10 11 0 2 -4 4 -10 4 -5 0 -10
-5 -10 -11z"/>
<path d="M443 2953 c15 -2 37 -2 50 0 12 2 0 4 -28 4 -27 0 -38 -2 -22 -4z"/>
<path d="M618 2953 c12 -2 30 -2 40 0 9 3 -1 5 -23 4 -22 0 -30 -2 -17 -4z"/>
<path d="M688 2953 c7 -3 16 -2 19 1 4 3 -2 6 -13 5 -11 0 -14 -3 -6 -6z"/>
<path d="M758 2953 c23 -2 59 -2 80 0 20 2 1 4 -43 4 -44 0 -61 -2 -37 -4z"/>
<path d="M993 2953 c20 -2 54 -2 75 0 20 2 3 4 -38 4 -41 0 -58 -2 -37 -4z"/>
<path d="M1148 2953 c6 -2 18 -2 25 0 6 3 1 5 -13 5 -14 0 -19 -2 -12 -5z"/>
<path d="M1198 2953 c6 -2 18 -2 25 0 6 3 1 5 -13 5 -14 0 -19 -2 -12 -5z"/>
<path d="M1283 2953 c26 -2 67 -2 90 0 23 2 2 3 -48 3 -49 0 -68 -1 -42 -3z"/>
<path d="M2375 2949 c-4 -6 -5 -12 -2 -15 2 -3 7 2 10 11 7 17 1 20 -8 4z"/>
<path d="M1045 2929 c-33 -4 61 -6 208 -5 148 0 271 4 273 8 5 8 -395 6 -481
-3z"/>
<path d="M1806 2931 c-2 -3 28 -7 67 -9 39 -1 69 0 66 2 -7 7 -129 14 -133 7z"/>
<path d="M1955 2930 c-2 -3 5 -7 16 -7 10 -1 19 2 19 6 0 9 -29 10 -35 1z"/>
<path d="M2084 2929 c-4 -8 -3 -9 4 -5 7 4 12 2 12 -3 0 -6 9 -11 20 -11 11 0
20 5 20 11 0 5 -5 7 -10 4 -6 -4 -17 -2 -25 5 -10 8 -15 8 -21 -1z"/>
<path d="M718 2923 c17 -2 47 -2 65 0 17 2 3 4 -33 4 -36 0 -50 -2 -32 -4z"/>
<path d="M2154 2918 c-3 -4 11 -8 30 -8 20 0 36 2 36 4 0 8 -61 12 -66 4z"/>
<path d="M2304 2908 c-3 -4 10 -8 28 -8 18 0 57 -3 86 -6 33 -5 52 -3 52 4 0
5 -8 8 -17 6 -10 -3 -46 -1 -81 4 -34 5 -65 5 -68 0z"/>
<path d="M545 2880 c-19 -8 -19 -9 3 -9 12 -1 22 4 22 9 0 6 -1 10 -2 9 -2 0
-12 -4 -23 -9z"/>
<path d="M664 2878 c-3 -4 4 -8 15 -8 12 0 21 4 21 8 0 5 -7 9 -15 9 -9 0 -18
-4 -21 -9z"/>
<path d="M1150 2880 c0 -5 5 -10 10 -10 6 0 10 5 10 10 0 6 -4 10 -10 10 -5 0
-10 -4 -10 -10z"/>
<path d="M1220 2880 c20 -13 33 -13 25 0 -3 6 -14 10 -23 10 -15 0 -15 -2 -2
-10z"/>
<path d="M1252 2870 c-6 -11 -12 -22 -12 -25 0 -9 39 -5 45 5 3 6 -1 10 -9 10
-10 0 -13 6 -10 15 9 21 1 19 -14 -5z"/>
<path d="M1280 2885 c0 -7 30 -13 34 -7 3 4 -4 9 -15 9 -10 1 -19 0 -19 -2z"/>
<path d="M1398 2883 c25 -10 11 -22 -30 -26 -24 -2 26 -4 110 -5 139 -2 152 0
152 16 0 12 -8 17 -30 17 -19 1 -29 -4 -26 -11 3 -7 -17 -12 -64 -13 -53 -2
-69 1 -73 14 -4 8 -17 15 -29 14 -13 0 -17 -3 -10 -6z"/>
<path d="M1490 2880 c0 -4 7 -7 15 -6 23 3 26 12 5 13 -11 1 -20 -2 -20 -7z"/>
<path d="M473 2873 c9 -2 25 -2 35 0 9 3 1 5 -18 5 -19 0 -27 -2 -17 -5z"/>
<path d="M593 2873 c9 -2 23 -2 30 0 6 3 -1 5 -18 5 -16 0 -22 -2 -12 -5z"/>
<path d="M1640 2865 c0 -8 4 -15 10 -15 5 0 7 7 4 15 -4 8 -8 15 -10 15 -2 0
-4 -7 -4 -15z"/>
<path d="M1690 2868 c0 -5 85 -8 190 -7 105 2 190 6 190 11 0 4 -85 7 -190 6
-104 -1 -190 -5 -190 -10z"/>
<path d="M1110 2849 c-63 -5 -62 -6 29 -7 52 -1 92 0 90 2 -9 9 -56 11 -119 5z"/>
<path d="M2488 2843 c6 -2 18 -2 25 0 6 3 1 5 -13 5 -14 0 -19 -2 -12 -5z"/>
<path d="M2292 2834 c9 -8 136 -9 144 -1 4 4 -28 7 -71 7 -43 0 -76 -3 -73 -6z"/>
<path d="M1844 2818 c-3 -4 4 -8 15 -8 11 0 22 4 25 8 2 4 -4 8 -15 8 -11 0
-23 -4 -25 -8z"/>
<path d="M1972 2824 c7 -7 199 -6 206 1 3 3 -43 5 -103 5 -60 0 -106 -3 -103
-6z"/>
<path d="M2258 2823 c7 -3 16 -2 19 1 4 3 -2 6 -13 5 -11 0 -14 -3 -6 -6z"/>
<path d="M1052 2815 c7 -7 479 -7 486 0 3 3 -106 5 -243 5 -137 0 -246 -2
-243 -5z"/>
<path d="M1588 2813 c23 -2 61 -2 85 0 23 2 4 4 -43 4 -47 0 -66 -2 -42 -4z"/>
<path d="M1733 2813 c9 -2 25 -2 35 0 9 3 1 5 -18 5 -19 0 -27 -2 -17 -5z"/>
<path d="M2046 2767 c3 -10 9 -15 12 -12 3 3 0 11 -7 18 -10 9 -11 8 -5 -6z"/>
<path d="M741 2674 c0 -11 3 -14 6 -6 3 7 2 16 -1 19 -3 4 -6 -2 -5 -13z"/>
<path d="M1590 2680 c-20 -6 -21 -8 -5 -8 11 0 31 4 45 8 20 6 21 8 5 8 -11 0
-31 -4 -45 -8z"/>
<path d="M1428 2643 c6 -2 18 -2 25 0 6 3 1 5 -13 5 -14 0 -19 -2 -12 -5z"/>
<path d="M1378 2633 c7 -3 16 -2 19 1 4 3 -2 6 -13 5 -11 0 -14 -3 -6 -6z"/>
<path d="M1338 2623 c7 -3 16 -2 19 1 4 3 -2 6 -13 5 -11 0 -14 -3 -6 -6z"/>
<path d="M1266 2611 c-4 -5 3 -7 14 -4 23 6 26 13 6 13 -8 0 -17 -4 -20 -9z"/>
<path d="M1981 2604 c0 -11 3 -14 6 -6 3 7 2 16 -1 19 -3 4 -6 -2 -5 -13z"/>
<path d="M1205 2600 c-13 -5 -14 -9 -5 -9 8 0 24 4 35 9 13 5 14 9 5 9 -8 0
-24 -4 -35 -9z"/>
<path d="M1130 2588 c-25 -5 -49 -13 -54 -18 -4 -4 14 -3 40 2 27 6 53 14 59
19 5 5 7 9 5 8 -3 -1 -25 -6 -50 -11z"/>
<path d="M2032 2583 c-16 -6 -5 -23 16 -23 15 0 15 2 2 11 -12 9 -11 10 8 6
12 -3 20 -1 16 4 -6 10 -21 11 -42 2z"/>
<path d="M1038 2563 c7 -3 16 -2 19 1 4 3 -2 6 -13 5 -11 0 -14 -3 -6 -6z"/>
<path d="M181 2514 c0 -11 3 -14 6 -6 3 7 2 16 -1 19 -3 4 -6 -2 -5 -13z"/>
<path d="M390 2491 c0 -4 11 -6 25 -3 14 2 25 6 25 8 0 2 -11 4 -25 4 -14 0
-25 -4 -25 -9z"/>
<path d="M590 2488 c-118 -19 -160 -30 -154 -39 3 -5 -2 -12 -10 -15 -13 -5
-16 -23 -16 -91 0 -102 9 -114 74 -102 24 4 42 4 44 -2 3 -6 10 -5 18 2 7 6
20 9 28 6 7 -3 24 0 38 7 13 7 36 16 51 20 38 9 50 41 49 124 -2 106 -7 109
-122 90z m100 -23 c0 -8 -8 -16 -17 -16 -27 -2 -55 -7 -90 -14 -21 -5 -33 -4
-33 3 0 12 17 18 74 27 22 3 42 8 45 10 9 10 21 4 21 -10z m-152 -27 c-3 -7
-24 -17 -49 -22 -24 -5 -36 -11 -26 -13 17 -5 25 -33 8 -33 -5 0 -16 -3 -24
-6 -12 -4 -15 3 -14 30 1 33 3 35 46 44 64 13 63 13 59 0z m152 -14 c0 -8 -4
-13 -9 -9 -5 3 -12 1 -16 -5 -9 -15 -45 -12 -45 4 0 14 18 23 53 25 9 0 17 -6
17 -15z m-83 -17 c-3 -8 -19 -17 -37 -19 -24 -4 -30 -1 -28 11 2 9 17 18 33
22 35 6 39 5 32 -14z m-77 -12 c0 -8 -4 -15 -9 -15 -4 0 -6 -11 -3 -25 3 -18
0 -25 -11 -25 -10 0 -15 11 -15 40 -1 33 3 40 19 40 10 0 19 -7 19 -15z m160
-38 c0 -40 -13 -67 -32 -67 -16 0 -7 20 10 21 15 0 15 1 -2 8 -17 7 -17 8 -2
24 10 9 13 17 8 17 -6 0 -8 9 -5 20 9 35 23 21 23 -23z m-30 23 c0 -11 -50
-34 -57 -27 -2 2 -1 12 3 21 7 17 54 23 54 6z m-71 -23 c-8 -18 -17 -23 -35
-19 -13 2 -24 6 -24 7 0 11 35 35 50 35 17 0 18 -3 9 -23z m-116 -49 c-7 -66
-13 -74 -13 -20 0 33 -3 40 -15 36 -9 -4 -15 0 -15 9 0 15 14 25 37 26 9 1 10
-14 6 -51z m167 22 c-6 -11 -21 -21 -33 -21 -17 -1 -18 -2 -4 -6 9 -2 17 -9
17 -14 0 -11 -46 -23 -59 -14 -6 3 -11 1 -11 -4 0 -6 -4 -11 -10 -11 -5 0 -10
16 -10 35 0 28 4 35 20 35 25 0 27 -27 3 -32 -17 -3 -17 -4 0 -11 14 -5 20 0
28 23 9 26 18 31 62 39 4 0 3 -8 -3 -19z m-131 -22 c0 -7 -4 -22 -9 -33 -7
-17 -9 -15 -9 13 -1 17 4 32 9 32 6 0 10 -6 9 -12z m-59 -28 c0 -16 -4 -30
-10 -30 -5 0 -10 14 -10 30 0 17 5 30 10 30 6 0 10 -13 10 -30z"/>
<path d="M358 2483 c7 -3 16 -2 19 1 4 3 -2 6 -13 5 -11 0 -14 -3 -6 -6z"/>
<path d="M182 2417 c1 -31 5 -60 9 -63 11 -7 10 74 -1 101 -5 14 -8 2 -8 -38z"/>
<path d="M1555 2358 c-22 -4 -101 -17 -175 -28 -74 -10 -193 -29 -265 -40
-130 -21 -294 -44 -392 -56 -29 -4 -58 -13 -64 -20 -8 -10 -4 -11 23 -3 18 5
254 41 523 80 270 39 492 73 495 75 7 8 -99 1 -145 -8z"/>
<path d="M1728 2353 c7 -3 16 -2 19 1 4 3 -2 6 -13 5 -11 0 -14 -3 -6 -6z"/>
<path d="M1764 2349 c-5 -8 76 -22 84 -14 3 3 -4 5 -16 5 -12 0 -22 4 -22 9 0
11 -39 10 -46 0z"/>
<path d="M1480 2309 c-213 -31 -628 -90 -673 -95 -68 -9 -150 -24 -155 -29
-12 -12 -10 -11 635 83 222 32 406 62 410 65 9 9 8 9 -217 -24z"/>
<path d="M182 2305 c0 -16 2 -22 5 -12 2 9 2 23 0 30 -3 6 -5 -1 -5 -18z"/>
<path d="M1868 2323 c6 -2 18 -2 25 0 6 3 1 5 -13 5 -14 0 -19 -2 -12 -5z"/>
<path d="M1918 2313 c7 -3 16 -2 19 1 4 3 -2 6 -13 5 -11 0 -14 -3 -6 -6z"/>
<path d="M1728 2303 c6 -2 18 -2 25 0 6 3 1 5 -13 5 -14 0 -19 -2 -12 -5z"/>
<path d="M1957 2302 c6 -4 13 -21 15 -37 4 -30 4 -30 9 6 4 30 2 35 -16 37
-11 0 -15 -2 -8 -6z"/>
<path d="M2008 2293 c6 -2 18 -2 25 0 6 3 1 5 -13 5 -14 0 -19 -2 -12 -5z"/>
<path d="M2058 2283 c6 -2 18 -2 25 0 6 3 1 5 -13 5 -14 0 -19 -2 -12 -5z"/>
<path d="M2145 2265 c28 -7 59 -13 70 -13 11 0 -2 6 -30 13 -27 7 -59 13 -70
13 -11 0 3 -6 30 -13z"/>
<path d="M325 2260 c3 -5 8 -10 11 -10 2 0 4 5 4 10 0 6 -5 10 -11 10 -5 0 -7
-4 -4 -10z"/>
<path d="M2248 2243 c7 -3 16 -2 19 1 4 3 -2 6 -13 5 -11 0 -14 -3 -6 -6z"/>
<path d="M2338 2223 c7 -3 16 -2 19 1 4 3 -2 6 -13 5 -11 0 -14 -3 -6 -6z"/>
<path d="M2398 2213 c7 -3 16 -2 19 1 4 3 -2 6 -13 5 -11 0 -14 -3 -6 -6z"/>
<path d="M2438 2203 c7 -3 16 -2 19 1 4 3 -2 6 -13 5 -11 0 -14 -3 -6 -6z"/>
<path d="M525 2190 c-3 -6 1 -7 9 -4 18 7 21 14 7 14 -6 0 -13 -4 -16 -10z"/>
<path d="M570 2192 c0 -6 -8 -13 -17 -15 -16 -4 -16 -5 -1 -6 18 -1 34 16 24
26 -3 4 -6 1 -6 -5z"/>
<path d="M916 2187 c3 -10 9 -15 12 -12 3 3 0 11 -7 18 -10 9 -11 8 -5 -6z"/>
<path d="M430 2160 c-23 -7 -23 -8 -3 -9 12 -1 25 4 28 9 3 6 5 10 3 9 -2 -1
-14 -5 -28 -9z"/>
<path d="M730 2155 c-8 -9 -8 -15 -2 -15 12 0 26 19 19 26 -2 2 -10 -2 -17
-11z"/>
<path d="M826 2155 c-11 -8 -16 -15 -10 -15 5 0 18 7 28 15 11 8 16 15 10 15
-5 0 -18 -7 -28 -15z"/>
<path d="M2308 2163 c7 -3 16 -2 19 1 4 3 -2 6 -13 5 -11 0 -14 -3 -6 -6z"/>
<path d="M875 2150 c-13 -6 -15 -9 -5 -9 8 0 22 4 30 9 18 12 2 12 -25 0z"/>
<path d="M2179 2156 c-2 -2 -31 -7 -64 -10 -33 -4 -69 -9 -80 -11 -11 -3 -49
-7 -85 -10 -130 -11 -159 -17 -165 -35 -7 -22 48 -145 67 -153 15 -5 111 32
116 45 2 4 8 8 13 8 17 0 256 117 263 129 12 18 -1 14 -133 -49 -70 -33 -129
-60 -131 -60 -3 0 -3 22 -2 49 l4 48 101 12 c146 17 177 23 177 30 0 8 -73 14
-81 7z m-219 -101 l0 -55 -51 -26 c-28 -14 -52 -24 -53 -22 -17 29 -58 129
-55 132 2 2 38 8 79 14 41 5 76 10 78 11 1 0 2 -24 2 -54z"/>
<path d="M930 2141 c0 -6 4 -13 10 -16 6 -3 7 1 4 9 -7 18 -14 21 -14 7z"/>
<path d="M825 2120 c-3 -6 1 -7 9 -4 18 7 21 14 7 14 -6 0 -13 -4 -16 -10z"/>
<path d="M2060 1949 c-19 -4 133 -7 339 -8 206 0 371 2 368 6 -9 8 -660 10
-707 2z"/>
<path d="M2873 1943 c20 -2 54 -2 75 0 20 2 3 4 -38 4 -41 0 -58 -2 -37 -4z"/>
<path d="M218 1913 c7 -3 16 -2 19 1 4 3 -2 6 -13 5 -11 0 -14 -3 -6 -6z"/>
<path d="M654 1885 c22 -17 40 -20 32 -6 -3 5 -16 11 -28 14 -22 6 -22 5 -4
-8z"/>
<path d="M610 1870 c8 -5 20 -10 25 -10 6 0 3 5 -5 10 -8 5 -19 10 -25 10 -5
0 -3 -5 5 -10z"/>
<path d="M2678 1843 c7 -3 16 -2 19 1 4 3 -2 6 -13 5 -11 0 -14 -3 -6 -6z"/>
<path d="M2723 1843 c9 -2 23 -2 30 0 6 3 -1 5 -18 5 -16 0 -22 -2 -12 -5z"/>
<path d="M2634 1824 c-18 -14 -18 -15 4 -4 12 6 22 13 22 15 0 8 -5 6 -26 -11z"/>
<path d="M538 1785 c17 -32 61 -81 62 -69 0 5 -16 28 -36 50 -21 21 -32 30
-26 19z"/>
<path d="M2579 1773 l-24 -28 28 24 c25 23 32 31 24 31 -2 0 -14 -12 -28 -27z"/>
<path d="M796 1777 c3 -10 9 -15 12 -12 3 3 0 11 -7 18 -10 9 -11 8 -5 -6z"/>
<path d="M2063 1743 c9 -2 25 -2 35 0 9 3 1 5 -18 5 -19 0 -27 -2 -17 -5z"/>
<path d="M2515 1735 c-16 -8 -23 -14 -14 -15 8 0 24 7 35 15 23 18 18 18 -21
0z"/>
<path d="M500 1731 c0 -5 5 -13 10 -16 6 -3 10 -2 10 4 0 5 -4 13 -10 16 -5 3
-10 2 -10 -4z"/>
<path d="M2128 1733 c6 -2 18 -2 25 0 6 3 1 5 -13 5 -14 0 -19 -2 -12 -5z"/>
<path d="M430 1716 c0 -9 5 -16 10 -16 6 0 10 4 10 9 0 6 -4 13 -10 16 -5 3
-10 -1 -10 -9z"/>
<path d="M2184 1722 c2 -4 21 -9 42 -10 20 -2 42 -6 48 -9 7 -4 8 -3 1 4 -12
13 -99 27 -91 15z"/>
<path d="M2425 1710 c-27 -7 -28 -8 -5 -8 14 0 34 3 45 8 25 11 2 11 -40 0z"/>
<path d="M546 1695 c4 -8 11 -15 16 -15 6 0 5 6 -2 15 -7 8 -14 15 -16 15 -2
0 -1 -7 2 -15z"/>
<path d="M522 1680 c0 -14 2 -19 5 -12 2 6 2 18 0 25 -3 6 -5 1 -5 -13z"/>
<path d="M580 1664 c0 -8 5 -12 10 -9 6 4 8 11 5 16 -9 14 -15 11 -15 -7z"/>
<path d="M829 1663 c-13 -16 -12 -17 4 -4 9 7 17 15 17 17 0 8 -8 3 -21 -13z"/>
<path d="M972 1615 c0 -16 2 -22 5 -12 2 9 2 23 0 30 -3 6 -5 -1 -5 -18z"/>
<path d="M341 1614 c0 -11 3 -14 6 -6 3 7 2 16 -1 19 -3 4 -6 -2 -5 -13z"/>
<path d="M1888 1613 c7 -3 16 -2 19 1 4 3 -2 6 -13 5 -11 0 -14 -3 -6 -6z"/>
<path d="M1110 1534 c8 -10 15 -20 16 -22 1 -2 4 1 7 5 3 5 -4 15 -16 23 -21
12 -21 12 -7 -6z"/>
<path d="M2043 1521 c-9 -14 -9 -21 0 -30 27 -27 61 4 37 34 -16 20 -23 19
-37 -4z m27 -11 c0 -5 -4 -10 -10 -10 -5 0 -10 5 -10 10 0 6 5 10 10 10 6 0
10 -4 10 -10z"/>
<path d="M1935 1510 c-17 -19 -18 -22 -2 -37 21 -21 44 -4 32 24 -5 10 -7 21
-7 26 3 12 -4 8 -23 -13z m25 -19 c0 -6 -4 -13 -10 -16 -5 -3 -10 1 -10 9 0 9
5 16 10 16 6 0 10 -4 10 -9z"/>
<path d="M1880 1480 c0 -5 5 -10 11 -10 5 0 7 5 4 10 -3 6 -8 10 -11 10 -2 0
-4 -4 -4 -10z"/>
<path d="M990 1436 c0 -8 4 -17 9 -20 5 -4 7 3 4 14 -6 23 -13 26 -13 6z"/>
<path d="M1119 1363 c-13 -16 -12 -17 4 -4 9 7 17 15 17 17 0 8 -8 3 -21 -13z"/>
<path d="M1060 1113 c0 -6 -45 -13 -117 -17 -124 -8 -246 -23 -203 -25 35 -2
334 21 339 25 3 3 -1 10 -7 16 -8 8 -12 8 -12 1z"/>
<path d="M1101 1101 c-9 -6 7 -7 45 -4 42 4 71 0 99 -11 38 -16 39 -16 22 1
-19 20 -142 31 -166 14z"/>
<path d="M627 1074 c-1 -1 -46 -4 -100 -7 -55 -3 -102 -8 -105 -12 -9 -8 212
5 258 15 35 8 35 8 -8 7 -24 -1 -44 -3 -45 -3z"/>
<path d="M1198 1063 c6 -2 18 -2 25 0 6 3 1 5 -13 5 -14 0 -19 -2 -12 -5z"/>
<path d="M295 1050 l-50 -7 58 -1 c37 -1 56 2 52 8 -3 6 -7 9 -8 8 -1 0 -24
-4 -52 -8z"/>
<path d="M1038 1053 c17 -2 47 -2 65 0 17 2 3 4 -33 4 -36 0 -50 -2 -32 -4z"/>
<path d="M858 1043 c18 -2 45 -2 60 0 15 2 0 4 -33 4 -33 0 -45 -2 -27 -4z"/>
<path d="M697 1033 c18 -2 50 -2 70 0 21 2 7 4 -32 4 -38 0 -55 -2 -38 -4z"/>
<path d="M518 1023 c18 -2 45 -2 60 0 15 2 0 4 -33 4 -33 0 -45 -2 -27 -4z"/>
<path d="M300 1010 c0 -3 12 -18 26 -35 18 -21 21 -23 10 -5 -21 32 -20 38 7
43 13 3 9 4 -10 4 -18 -1 -33 -4 -33 -7z"/>
<path d="M378 1013 c7 -3 16 -2 19 1 4 3 -2 6 -13 5 -11 0 -14 -3 -6 -6z"/>
<path d="M418 1013 c6 -2 18 -2 25 0 6 3 1 5 -13 5 -14 0 -19 -2 -12 -5z"/>
<path d="M1066 994 c-19 -17 -37 -24 -53 -21 -22 4 -22 3 -8 -13 13 -15 13
-17 0 -17 -8 0 -15 4 -15 9 0 5 -5 6 -11 2 -8 -4 -7 -9 2 -15 9 -6 2 -8 -21
-7 -19 2 -41 9 -48 16 -17 15 -29 15 -38 0 -5 -7 -2 -9 9 -5 9 3 17 1 20 -6 2
-7 29 -11 70 -12 58 0 66 2 61 17 -5 17 28 43 40 31 3 -3 6 -1 6 6 0 7 5 9 10
6 8 -5 7 -11 -1 -21 -13 -15 -2 -19 19 -5 10 6 10 10 -3 21 -9 7 -14 19 -11
27 7 17 6 17 -28 -13z"/>
<path d="M495 980 c-3 -6 1 -7 9 -4 18 7 21 14 7 14 -6 0 -13 -4 -16 -10z"/>
<path d="M530 986 c0 -2 7 -7 16 -10 8 -3 12 -2 9 4 -6 10 -25 14 -25 6z"/>
<path d="M625 960 c-10 -11 -25 -20 -34 -21 -10 0 -12 -2 -3 -6 6 -2 9 -9 6
-15 -4 -6 -1 -9 7 -6 11 4 54 68 45 68 -1 0 -11 -9 -21 -20z"/>
<path d="M482 925 c-31 -51 -50 -60 -27 -12 l16 32 -20 -25 c-39 -48 -19 -76
21 -29 15 16 23 29 20 30 -4 1 4 4 18 8 28 8 41 41 15 41 -9 0 -28 -20 -43
-45z"/>
<path d="M652 947 c-12 -13 -22 -26 -22 -30 0 -12 27 -7 39 7 6 7 21 12 34 11
31 -3 31 -3 17 -20 -10 -12 -15 -13 -21 -4 -5 9 -11 8 -23 -4 -15 -14 -14 -15
7 -13 13 1 27 5 32 7 6 3 27 5 47 3 21 -1 36 2 33 6 -3 5 -14 6 -26 3 -24 -7
-45 17 -26 29 7 4 14 1 18 -9 5 -14 7 -14 21 1 20 19 29 21 22 3 -3 -8 2 -20
11 -27 11 -9 15 -9 15 -1 0 7 4 10 8 7 4 -2 9 6 10 20 1 20 -3 24 -28 24 -16
0 -32 -5 -35 -10 -5 -8 -11 -8 -19 -1 -7 6 -16 8 -19 5 -3 -3 -22 -7 -42 -9
-27 -1 -35 1 -31 11 7 19 3 17 -22 -9z m182 -12 c-4 -8 -11 -15 -16 -15 -6 0
-5 6 2 15 7 8 14 15 16 15 2 0 1 -7 -2 -15z"/>
<path d="M926 959 c6 -11 31 -12 37 -1 3 4 -6 8 -19 8 -13 1 -21 -2 -18 -7z"/>
<path d="M538 935 c-26 -22 -26 -24 -9 -39 19 -17 105 -30 95 -15 -3 5 3 9 13
10 16 0 16 1 -2 8 -11 5 -24 5 -30 2 -13 -10 -65 -13 -65 -4 0 3 7 14 16 24
26 29 12 40 -18 14z"/>
<path d="M1059 951 c11 -7 11 -9 0 -14 -8 -3 -1 -6 15 -6 28 -1 29 0 10 14
-10 8 -23 14 -29 15 -5 0 -4 -4 4 -9z"/>
<path d="M875 920 c27 -12 43 -12 25 0 -8 5 -22 9 -30 9 -10 0 -8 -3 5 -9z"/>
<path d="M555 910 c-3 -5 -2 -10 4 -10 5 0 13 5 16 10 3 6 2 10 -4 10 -5 0
-13 -4 -16 -10z"/>
<path d="M446 805 c41 -58 78 -105 80 -105 6 0 -15 30 -94 138 -29 39 -55 72
-57 72 -3 0 29 -47 71 -105z"/>
<path d="M809 875 c-15 -15 -53 -27 -91 -29 -12 0 -14 -4 -7 -18 5 -9 15 -20
22 -24 9 -6 9 -5 0 8 -13 15 -8 28 9 28 5 0 6 -4 3 -10 -7 -11 -6 -11 45 -15
19 -2 27 -1 17 2 -10 2 -14 10 -11 16 5 8 2 8 -7 0 -18 -18 -34 -16 -19 2 7 8
18 15 24 15 6 0 17 9 24 20 15 24 12 25 -9 5z"/>
<path d="M996 861 l-30 -20 27 -6 c14 -4 32 -5 39 -2 7 3 0 6 -17 6 l-30 1 30
20 c17 11 26 20 20 20 -5 0 -23 -9 -39 -19z"/>
<path d="M563 864 c4 -4 -3 -21 -14 -38 l-21 -31 22 25 c12 14 29 25 38 25 8
0 18 7 20 15 5 13 3 13 -11 1 -11 -9 -17 -10 -17 -2 0 6 -5 11 -12 11 -6 0 -8
-3 -5 -6z"/>
<path d="M827 852 c-13 -14 -13 -19 -1 -29 7 -7 19 -13 26 -13 7 0 4 6 -6 12
-18 10 -18 12 -2 23 9 7 13 16 8 19 -5 3 -16 -2 -25 -12z"/>
<path d="M885 862 c-10 -11 -5 -23 8 -15 19 12 49 14 42 3 -3 -5 -1 -10 5 -10
6 0 8 -4 5 -10 -3 -5 1 -10 11 -10 12 0 14 3 5 13 -6 8 -7 17 -1 23 5 5 -6 10
-30 10 -22 1 -42 -1 -45 -4z"/>
<path d="M612 840 c-27 -22 -12 -36 20 -19 14 8 18 14 10 17 -6 2 -10 8 -6 13
8 13 2 11 -24 -11z"/>
<path d="M667 826 c-17 -13 -17 -14 0 -20 10 -4 14 -4 10 0 -4 4 -2 13 4 21
14 17 9 16 -14 -1z"/>
<path d="M890 830 c-12 -8 -9 -9 12 -8 15 1 24 6 22 10 -7 10 -16 10 -34 -2z"/>
<path d="M556 801 l-20 -26 21 18 c14 12 23 15 28 8 3 -6 14 -11 23 -10 14 0
14 2 2 6 -8 3 -20 11 -25 18 -8 9 -15 6 -29 -14z"/>
<path d="M637 799 c7 -7 15 -10 18 -7 3 3 -2 9 -12 12 -14 6 -15 5 -6 -5z"/>
<path d="M1000 759 c-22 -6 -21 -7 12 -8 35 -1 37 -3 41 -38 l4 -38 1 37 c2
43 -18 59 -58 47z"/>
<path d="M965 706 c3 -22 8 -42 10 -45 9 -8 4 43 -6 64 -6 15 -7 9 -4 -19z"/>
<path d="M553 713 c9 -2 25 -2 35 0 9 3 1 5 -18 5 -19 0 -27 -2 -17 -5z"/>
<path d="M612 690 c0 -14 2 -19 5 -12 2 6 2 18 0 25 -3 6 -5 1 -5 -13z"/>
<path d="M532 660 c0 -19 2 -27 5 -17 2 9 2 25 0 35 -3 9 -5 1 -5 -18z"/>
<path d="M1062 645 c0 -16 2 -22 5 -12 2 9 2 23 0 30 -3 6 -5 -1 -5 -18z"/>
<path d="M979 608 c4 -28 6 -29 9 -9 2 13 0 27 -5 32 -6 6 -7 -3 -4 -23z"/>
<path d="M620 604 c0 -14 4 -23 9 -20 5 3 7 15 4 26 -7 28 -13 25 -13 -6z"/>
<path d="M541 594 c0 -11 3 -14 6 -6 3 7 2 16 -1 19 -3 4 -6 -2 -5 -13z"/>
</g>
</svg>
